<svg height="368pt" viewBox="0 0 368.004 368" width="368pt" xmlns="http://www.w3.org/2000/svg"><path d="m365.65625 2.347656c-3.125-3.128906-8.183594-3.128906-11.308594 0l-18.34375 18.34375-18.347656-18.34375c-3.125-3.128906-8.183594-3.128906-11.308594 0l-64 64c-3.128906 3.128906-3.128906 8.183594 0 11.3125l18.34375 18.34375-20.699218 20.679688-18.335938-18.335938c-3.125-3.128906-8.183594-3.128906-11.308594 0l-64 64c-3.128906 3.128906-3.128906 8.183594 0 11.3125l18.34375 18.34375-20.6875 20.6875-18.347656-18.34375c-3.125-3.128906-8.183594-3.128906-11.308594 0l-64 64c-3.128906 3.128906-3.128906 8.183594 0 11.3125l18.34375 18.34375-66.34375 66.34375c-3.128906 3.128906-3.128906 8.183594 0 11.3125 1.558594 1.558594 3.605469 2.34375 5.65625 2.34375 2.046875 0 4.09375-.785156 5.652344-2.34375l66.347656-66.34375 18.34375 18.34375c1.558594 1.558594 3.605469 2.34375 5.65625 2.34375 2.046875 0 4.09375-.785156 5.652344-2.34375l64-64c3.128906-3.128906 3.128906-8.183594 0-11.3125l-18.34375-18.34375 20.691406-20.6875 18.34375 18.34375c1.558594 1.558594 3.605469 2.34375 5.65625 2.34375 2.046875 0 4.09375-.785156 5.652344-2.34375l64-64c3.128906-3.128906 3.128906-8.183594 0-11.3125l-18.351562-18.351562 20.699218-20.679688 18.34375 18.34375c1.558594 1.558594 3.605469 2.34375 5.65625 2.34375 2.046875 0 4.09375-.785156 5.652344-2.34375l64-64c3.128906-3.128906 3.128906-8.183594 0-11.3125l-18.34375-18.34375 18.34375-18.34375c3.128906-3.128906 3.128906-8.183594 0-11.3125zm-261.652344 298.34375-36.691406-36.6875 52.691406-52.6875 36.6875 36.6875zm96-96-36.691406-36.6875 52.691406-52.6875 36.6875 36.6875zm96-96-36.691406-36.6875 52.691406-52.6875 36.6875 36.6875zm0 0"/></svg>